<?xml version="1.0" encoding="utf-8"?><!-- Uploaded to: SVG Repo, www.svgrepo.com, Generator: SVG Repo Mixer Tools -->
<svg fill="#000000" width="800px" height="800px" viewBox="0 0 24 24" id="telescope" data-name="Flat Line" xmlns="http://www.w3.org/2000/svg" class="icon flat-line"><path id="secondary" d="M9.17,5.42h11a0,0,0,0,1,0,0v6a0,0,0,0,1,0,0h-11a1,1,0,0,1-1-1v-4a1,1,0,0,1,1-1Z" transform="translate(-1.7 3.95) rotate(-15)" style="fill: rgb(44, 169, 188); stroke-width: 2;"></path><path id="primary" d="M13,12l-3,9m3-9,3,9M19.19,4,8.56,6.81A1,1,0,0,0,7.86,8l1,3.86a1,1,0,0,0,1.23.71L20.74,9.76ZM4,13.2l4.85-1.3L7.86,8,3,9.34Zm17-2.47L18.93,3" style="fill: none; stroke: rgb(0, 0, 0); stroke-linecap: round; stroke-linejoin: round; stroke-width: 2;"></path></svg>